<?xml version="1.0" standalone="no"?>
<!DOCTYPE svg PUBLIC "-//W3C//DTD SVG 20010904//EN"
 "http://www.w3.org/TR/2001/REC-SVG-20010904/DTD/svg10.dtd">
<svg version="1.0" xmlns="http://www.w3.org/2000/svg"
 width="1024.000000pt" height="1024.000000pt" viewBox="0 0 1024.000000 1024.000000"
 preserveAspectRatio="xMidYMid meet">

<g transform="translate(0.000000,1024.000000) scale(0.100000,-0.100000)"
fill="#000000" stroke="none">
<path d="M2650 9064 c-47 -14 -134 -40 -195 -59 -60 -18 -157 -46 -215 -61
-108 -27 -185 -58 -197 -77 -4 -6 -6 -118 -5 -248 l2 -236 -58 -12 c-81 -16
-131 -68 -146 -153 -13 -73 32 -165 97 -200 68 -36 171 -17 235 45 63 60 75
96 83 257 4 80 8 195 8 255 l1 110 118 37 c145 47 232 71 237 66 2 -1 6 -60
10 -130 l8 -128 -42 0 c-58 0 -100 -20 -143 -68 -109 -121 -19 -302 150 -302
63 0 106 17 156 60 67 60 82 105 90 273 4 82 4 237 0 345 l-7 197 -28 27 c-33
34 -49 34 -159 2z"/>
<path d="M4885 8903 c-369 -25 -841 -177 -1149 -370 -529 -331 -890 -749
-1094 -1263 l-37 -95 -105 0 c-118 0 -143 -10 -181 -72 -20 -32 -21 -43 -15
-148 l6 -113 -28 -5 c-63 -14 -187 -100 -282 -196 -109 -112 -175 -224 -212
-357 -32 -121 -30 -325 4 -455 41 -153 100 -251 227 -382 67 -69 213 -170 265
-183 l28 -7 -6 -111 c-7 -122 -2 -144 46 -179 26 -20 45 -21 430 -24 l403 -4
35 23 c57 38 72 78 68 186 -4 92 4 120 17 60 21 -96 135 -276 269 -424 161
-178 411 -312 671 -360 84 -16 152 -19 430 -19 l330 0 1 -443 1 -442 -226 -2
c-124 -1 -316 -2 -426 -2 -181 -1 -204 -3 -230 -20 -86 -57 -94 -138 -20 -206
l27 -25 995 2 c1100 2 1022 -2 1063 66 24 39 26 104 4 135 -36 52 -41 52 -503
52 l-429 -1 -5 441 -6 440 262 0 c496 1 655 29 917 160 120 61 248 169 351
296 59 74 152 229 175 293 28 76 35 71 32 -24 -2 -69 2 -97 15 -122 33 -62 34
-62 468 -63 374 0 396 1 426 20 55 33 66 68 58 184 l-7 101 50 17 c70 25 209
127 295 217 145 152 214 354 204 601 -11 271 -108 473 -305 629 -75 60 -191
131 -215 131 -15 0 -17 14 -17 120 0 188 -24 215 -194 215 l-98 0 -57 130
c-157 356 -289 555 -561 839 -279 292 -731 558 -1130 665 -285 76 -482 102
-775 99 -115 -1 -232 -3 -260 -5z m431 -263 c358 -29 716 -124 964 -257 367
-197 656 -456 874 -781 69 -103 226 -397 226 -422 0 -10 -30 -11 -134 -6 -106
6 -140 5 -168 -7 -37 -16 -76 -61 -87 -104 -6 -22 -10 -13 -29 56 -26 98 -73
194 -149 310 -138 207 -327 352 -575 439 -187 66 -162 65 -957 69 -950 6
-1026 1 -1271 -84 -96 -33 -136 -53 -237 -118 -161 -105 -315 -276 -393 -439
-46 -96 -90 -223 -90 -263 -1 -22 -4 -17 -19 25 -37 106 -59 117 -238 113
l-142 -3 8 30 c16 54 139 286 211 396 94 144 164 228 301 361 298 289 677 507
1051 604 98 25 363 70 498 84 76 8 233 7 356 -3z m514 -979 c203 -8 220 -10
310 -39 282 -93 476 -294 581 -603 l32 -94 8 -290 c4 -159 5 -488 2 -730 -6
-500 -8 -521 -89 -694 -129 -277 -330 -442 -619 -509 -87 -21 -117 -21 -915
-24 -749 -2 -832 -1 -897 15 -317 74 -542 266 -659 560 -61 155 -63 175 -67
902 -2 363 0 694 4 735 20 179 120 385 251 518 71 72 251 179 364 216 130 42
163 44 834 44 355 0 742 -3 860 -7z m-2881 -1431 l-1 -690 -32 -1 c-29 -1 -29
-1 -6 -8 22 -6 26 -14 32 -61 3 -30 6 -101 7 -156 1 -89 -1 -102 -16 -105 -10
-3 -94 -3 -188 -1 l-170 4 -4 854 -3 854 191 0 191 0 -1 -690z m4747 674 c-3
-9 -6 -319 -6 -690 l0 -674 -62 -2 -63 -2 55 -3 c30 -3 58 -10 62 -16 4 -7 8
-81 8 -164 l0 -153 -178 0 -179 0 -7 283 c-3 155 -6 542 -6 860 l0 577 191 0
c170 0 190 -2 185 -16z m-5386 -845 l0 -501 -33 21 c-57 36 -153 139 -185 199
-29 54 -58 149 -48 159 2 2 32 -10 66 -27 34 -17 64 -30 66 -27 2 2 -18 14
-46 27 -27 13 -62 36 -77 52 -27 28 -28 34 -28 126 0 80 5 111 28 179 16 45
34 87 42 93 8 6 25 30 39 53 24 43 85 98 140 129 17 9 32 17 34 18 1 0 2 -225
2 -501z m5723 444 c134 -111 229 -321 213 -468 -10 -94 -24 -160 -40 -199 -24
-59 -93 -166 -135 -209 -30 -33 -97 -77 -116 -77 -3 0 -5 55 -5 123 0 99 3
127 17 147 16 22 16 23 -1 17 -17 -7 -18 12 -14 357 3 409 -4 379 81 309z"/>
<path d="M4084 6766 c-159 -80 -237 -225 -213 -395 31 -217 216 -358 421 -321
128 24 207 86 279 221 41 79 44 88 43 159 -3 147 -79 267 -212 332 -57 29 -79
33 -157 36 -86 3 -93 2 -161 -32z"/>
<path d="M5893 6777 c-172 -76 -251 -198 -240 -373 9 -145 81 -256 205 -316
62 -30 75 -33 167 -33 84 0 108 4 152 24 68 30 146 113 186 198 29 62 32 77
32 163 0 85 -3 101 -29 149 -36 70 -116 148 -186 180 -80 37 -213 41 -287 8z"/>
<path d="M4773 6010 c-43 -19 -83 -69 -83 -104 0 -38 46 -109 111 -170 53 -51
81 -68 140 -89 179 -64 323 -51 470 44 61 39 169 178 169 217 0 39 -81 112
-124 112 -28 0 -39 -8 -78 -59 -66 -84 -133 -116 -248 -116 -103 0 -164 26
-219 94 -49 61 -79 91 -88 91 -4 0 -27 -9 -50 -20z"/>
<path d="M2748 4690 c-92 -12 -92 -13 -85 -170 3 -75 3 -141 -1 -146 -4 -6
-28 -13 -54 -16 -97 -11 -155 -91 -129 -178 34 -115 175 -166 261 -93 55 46
60 66 60 246 l0 165 31 6 c61 12 59 16 59 -108 0 -63 3 -121 6 -130 8 -21 116
-23 133 -2 9 10 10 64 4 205 -10 234 -5 225 -136 228 -51 1 -118 -2 -149 -7z"/>
<path d="M7463 4684 c-31 -7 -35 -29 -31 -182 l3 -132 -41 0 c-86 0 -163 -94
-150 -183 14 -92 70 -137 169 -137 66 0 111 27 144 85 18 32 23 56 23 125 1
82 4 111 31 303 11 76 11 89 -2 103 -16 16 -106 26 -146 18z"/>
<path d="M3924 4030 c-26 -10 -64 -57 -64 -78 0 -19 73 -92 93 -92 22 0 77 49
88 77 12 31 -3 58 -44 83 -35 22 -42 23 -73 10z"/>
<path d="M6235 4002 c-56 -35 -61 -47 -32 -90 14 -22 39 -45 57 -52 30 -13 33
-12 76 31 24 24 44 51 44 60 0 25 -57 69 -88 69 -15 0 -40 -8 -57 -18z"/>
<path d="M6576 3502 c-88 -31 -117 -63 -95 -103 9 -17 8 -20 -3 -14 -7 5 3 -9
22 -29 112 -120 271 -121 335 -3 16 31 17 40 7 76 -29 95 -128 122 -266 73z"/>
<path d="M3430 3498 c-18 -13 -42 -40 -52 -60 -17 -32 -18 -43 -8 -72 14 -44
69 -93 114 -101 45 -9 88 14 126 67 35 48 38 78 9 125 -40 64 -126 83 -189 41z"/>
<path d="M3772 3482 c-47 -36 -43 -143 8 -184 26 -21 53 -13 90 29 78 88 -8
224 -98 155z"/>
<path d="M7134 3446 c-41 -41 -43 -64 -8 -105 30 -36 78 -42 124 -14 51 30 57
81 15 127 -36 39 -87 36 -131 -8z"/>
<path d="M4005 2234 c-248 -11 -257 -12 -80 -8 779 16 875 17 875 6 0 -7 9
-12 20 -12 11 0 20 5 20 10 0 6 5 10 10 10 6 0 10 -12 10 -26 0 -21 3 -24 13
-15 8 6 17 7 22 3 4 -4 5 4 1 18 -6 25 -6 25 5 3 13 -24 29 -31 29 -12 0 6 8
8 19 4 11 -3 23 0 28 7 12 20 52 18 45 -1 -4 -13 -2 -13 15 2 17 14 41 17 167
17 96 0 145 -4 141 -10 -3 -5 -2 -10 4 -10 5 0 13 5 16 10 10 17 35 11 35 -7
0 -15 2 -16 10 -3 8 12 12 13 19 2 7 -11 10 -11 22 0 10 9 40 13 101 12 49 -1
85 2 82 7 -8 13 -1302 8 -1629 -7z"/>
<path d="M6020 2239 c0 -5 51 -10 113 -10 169 -2 182 -3 180 -14 -1 -6 7 -12
18 -12 10 -1 19 3 19 8 0 6 7 6 19 -1 11 -5 37 -10 59 -10 41 0 57 -16 46 -45
-4 -8 -1 -15 6 -15 8 0 10 -8 7 -21 -7 -27 3 -56 13 -39 5 9 9 9 14 1 4 -6 -3
-16 -16 -21 -16 -8 13 -9 102 -5 186 7 230 25 230 96 0 28 -6 42 -24 57 -23
17 -51 19 -378 26 -194 4 -365 9 -380 10 -16 2 -28 -1 -28 -5z m520 -69 c0 -5
-4 -10 -10 -10 -5 0 -10 5 -10 10 0 6 5 10 10 10 6 0 10 -4 10 -10z m-40 -67
c-11 -17 -11 -17 -6 0 3 10 6 24 7 30 0 9 2 9 5 0 3 -7 0 -20 -6 -30z m34 -15
c4 -19 2 -28 -5 -28 -7 0 -9 3 -6 7 4 3 2 12 -4 19 -6 7 -8 18 -4 24 9 14 11
12 19 -22z"/>
<path d="M3496 2230 c-48 -9 -76 -41 -76 -85 0 -59 25 -70 164 -72 80 -1 110
1 88 6 -18 5 -36 12 -40 16 -4 5 0 6 9 3 9 -4 21 2 29 15 12 20 11 21 -2 9
-20 -16 -28 2 -17 38 4 14 7 19 8 13 2 -24 21 -13 21 11 0 16 7 27 21 31 65
21 -110 33 -205 15z"/>
<path d="M5688 2233 c6 -2 18 -2 25 0 6 3 1 5 -13 5 -14 0 -19 -2 -12 -5z"/>
<path d="M5858 2233 c6 -2 18 -2 25 0 6 3 1 5 -13 5 -14 0 -19 -2 -12 -5z"/>
<path d="M5923 2233 c9 -2 25 -2 35 0 9 3 1 5 -18 5 -19 0 -27 -2 -17 -5z"/>
<path d="M6370 2176 c7 -7 13 -7 20 0 6 6 3 10 -10 10 -13 0 -16 -4 -10 -10z"/>
<path d="M6086 2048 c3 -4 -23 -7 -57 -7 -33 0 -63 -2 -67 -5 -5 -6 440 4 447
10 2 2 -71 4 -162 6 -91 2 -163 0 -161 -4z"/>
<path d="M5608 2033 c12 -2 30 -2 40 0 9 3 -1 5 -23 4 -22 0 -30 -2 -17 -4z"/>
</g>
</svg>
